<svg xmlns="http://www.w3.org/2000/svg" xmlns:xlink="http://www.w3.org/1999/xlink" width="370" height="180" viewBox="0 0 370 180"><defs><style>.a{clip-path:url(#b);}.b{fill:#b71c20;}.c{fill:#b71a23;}.d{fill:#fff;}.e{fill:#882910;}</style><clipPath id="b"><rect width="370" height="180"/></clipPath></defs><g id="a" class="a"><path class="b" d="M-1777.836,800.885v-63.9q0-5.688-2.8-8.843a9.333,9.333,0,0,0-7.331-3.154,17.439,17.439,0,0,0-10.041,3.466v72.427h-51.9v-63.9q0-5.6-2.711-8.8a9.211,9.211,0,0,0-7.42-3.2,17.451,17.451,0,0,0-10.042,3.643v72.249H-1925V728.946a9.494,9.494,0,0,0-.635-.8,9.333,9.333,0,0,0-7.331-3.154,17.444,17.444,0,0,0-10.042,3.466v72.427h-51.9v-63.9q0-5.6-2.71-8.8a9.211,9.211,0,0,0-7.421-3.2,17.449,17.449,0,0,0-10.042,3.643v72.249H-2070v-107h54.92v13.419A43.258,43.258,0,0,1-1982.111,693q23.373,0,34.57,18.484,9.153-9.6,18.351-14.041a42.015,42.015,0,0,1,4.19-1.75c9.831-2.4,26-1.8,54.92-1.8v13.419A43.258,43.258,0,0,1-1837.111,693q23.372,0,34.57,18.484,9.153-9.6,18.351-14.041a47.1,47.1,0,0,1,20.75-4.443q17.418,0,27.46,10.664t10.042,30.037v67.183Z" transform="translate(2072 -624.885)"/><path class="c" d="M31.038,0,19.614-29.4h-7.56L.63,0H8.064l2.1-6.132H21.336L23.436,0ZM15.75-22.26l3.318,9.576H12.432ZM52.836-11.592c-.126,3.948-2.94,5.838-6.552,5.838-5.5,0-7.644-4.368-7.644-8.862,0-4.62,2.268-9.072,7.854-9.072,3.822,0,6.006,2.1,6.174,4.872h7.014c-.546-7.056-5.712-11.3-13.02-11.3-9.618,0-14.994,7.392-14.994,15.624C31.668-6.846,36.288.756,46.2.756c7.182,0,13.44-4.032,13.566-12.348ZM64.386,0H70.9V-18.732L77.742,0H84.42l6.846-18.732V0H97.86V-29.4H89.04l-7.9,21.21L73.206-29.4h-8.82Z" transform="translate(2.136 62)"/><path class="c" d="M2.19,0H5.91V-9.03c0-2.28,1.41-3.39,3.06-3.39a2.291,2.291,0,0,1,2.49,2.55V0h3.72V-9.03c0-2.28,1.41-3.39,3.06-3.39a2.291,2.291,0,0,1,2.49,2.55V0h3.69V-10.71a4.689,4.689,0,0,0-4.95-5.01c-2.25,0-4.17.84-5.1,2.91a4.017,4.017,0,0,0-4.2-2.91,4.544,4.544,0,0,0-4.35,2.61v-2.34H2.19ZM42.24-15.45H38.55v8.37c0,2.55-1.41,4.17-3.48,4.17a2.636,2.636,0,0,1-2.82-2.94v-9.6H28.53V-5.34c0,3.51,1.89,5.67,5.31,5.67a4.956,4.956,0,0,0,4.8-2.79V0h3.6Zm4.41-5.88V0h3.72V-21.33ZM60.93-3.27c-1.23,0-1.53-.6-1.53-1.68v-7.2h3.27v-3.3H59.4v-4.62l-3.69,1.02v3.6H52.92v3.3h2.79v7.74C55.71-.99,57.51,0,60.18,0H63V-3.27Zm9-14.37v-3.84H66.09v3.84ZM69.87,0V-15.45H66.15V0Zm4.29,0h3.72V-9.03c0-2.28,1.41-3.39,3.06-3.39a2.291,2.291,0,0,1,2.49,2.55V0h3.72V-9.03c0-2.28,1.41-3.39,3.06-3.39A2.291,2.291,0,0,1,92.7-9.87V0h3.69V-10.71a4.689,4.689,0,0,0-4.95-5.01c-2.25,0-4.17.84-5.1,2.91a4.017,4.017,0,0,0-4.2-2.91,4.544,4.544,0,0,0-4.35,2.61v-2.34H74.16Zm40.05-8.4c0-5.1-3.12-7.32-7.05-7.32-4.83,0-7.56,3.54-7.56,8.19,0,5.19,3.27,7.86,7.5,7.86,3.27,0,6.27-1.62,6.93-5.07h-3.66a3.028,3.028,0,0,1-3.15,1.86c-2.22,0-3.6-1.17-3.93-3.57h10.92Zm-10.8-.93a3.686,3.686,0,0,1,3.84-3.18c2.31,0,3.33,1.29,3.39,3.18Zm24.93-12v8.07a5.5,5.5,0,0,0-4.92-2.46c-3.69,0-6.93,2.61-6.93,8.01,0,5.43,3.33,8.04,6.99,8.04a5.392,5.392,0,0,0,5.13-2.85V0h3.42V-21.33ZM124.32-3.09c-2.13,0-4.02-1.47-4.02-4.68s1.86-4.56,3.99-4.56,4.08,1.35,4.08,4.56C128.37-4.53,126.42-3.09,124.32-3.09Zm15.81-14.55v-3.84h-3.84v3.84ZM140.07,0V-15.45h-3.72V0Zm10.89-15.72c-3.78,0-6.66,1.62-7.26,5.19h3.6c.33-1.32,1.47-2.19,3.48-2.19,1.62,0,2.61.57,2.61,1.83,0,1.23-.96,1.41-1.77,1.53l-3.24.45c-2.19.3-4.95,1.26-4.95,4.62,0,3,2.16,4.62,5.07,4.62a5.8,5.8,0,0,0,5.19-2.88V0h3.45V-10.5C157.14-14.01,154.92-15.72,150.96-15.72ZM149.52-2.76c-1.44,0-2.34-.6-2.34-1.8,0-1.47,1.44-1.77,2.37-1.89l1.62-.24a11.77,11.77,0,0,0,2.25-.54v.78A3.667,3.667,0,0,1,149.52-2.76Z" transform="translate(111.136 63)"/><path class="d" d="M25.884,0,15.912-25.2H10.8L.828,0h5l2.2-5.976H18.576L20.772,0Zm-12.6-20.412L17.028-10.3H9.54ZM44.028-12.78c-.324-4.1-3.816-6.084-8.1-6.084-4.392,0-7.56,2.088-7.56,6.048,0,4.248,3.708,4.86,7.524,5.508,2.664.432,4.14.684,4.14,2.088,0,1.368-1.3,2.016-3.276,2.016-2.232,0-3.816-.828-4.284-2.592H27.9C28.332-1.512,32.544.4,36.576.4c4.212,0,7.776-2.052,7.776-6.048,0-4.176-3.888-4.788-7.416-5.364-2.484-.4-4.284-.72-4.284-2.268,0-1.188,1.044-1.98,3.06-1.98,2.16,0,3.636.756,3.888,2.484Zm8.6-8.388v-4.608H48.024v4.608ZM52.56,0V-18.54H48.1V0ZM65.628-18.864c-4.536,0-7.992,1.944-8.712,6.228h4.32c.4-1.584,1.764-2.628,4.176-2.628,1.944,0,3.132.684,3.132,2.2,0,1.476-1.152,1.692-2.124,1.836l-3.888.54c-2.628.36-5.94,1.512-5.94,5.544,0,3.6,2.592,5.544,6.084,5.544A6.954,6.954,0,0,0,68.9-3.06V0h4.14V-12.6C73.044-16.812,70.38-18.864,65.628-18.864ZM63.9-3.312c-1.728,0-2.808-.72-2.808-2.16,0-1.764,1.728-2.124,2.844-2.268l1.944-.288a14.124,14.124,0,0,0,2.7-.648v.936A4.4,4.4,0,0,1,63.9-3.312Z" transform="translate(57.136 176) rotate(-90)"/><path class="c" d="M15.652,0V-4.172H7.308L10.7-6.888c2.548-2.044,4.676-3.808,4.676-6.888,0-3.864-2.856-5.824-6.608-5.824C4.536-19.6.84-17.108.84-12.1H5.32c0-2.464,1.456-3.416,3.052-3.416a2.138,2.138,0,0,1,2.408,2.24c0,1.232-.924,2.072-2.632,3.556l-7,6.02V0Zm9.016-19.6c-5.1,0-7.2,3.388-7.2,9.94s2.1,9.968,7.2,9.968,7.2-3.388,7.2-9.94S29.764-19.6,24.668-19.6Zm0,3.808c2.268,0,2.6,2.268,2.6,6.16S26.936-3.5,24.668-3.5s-2.6-2.268-2.6-6.16S22.4-15.792,24.668-15.792ZM48.5,0V-4.172H40.152L43.54-6.888c2.548-2.044,4.676-3.808,4.676-6.888,0-3.864-2.856-5.824-6.608-5.824-4.228,0-7.924,2.492-7.924,7.5h4.48c0-2.464,1.456-3.416,3.052-3.416a2.138,2.138,0,0,1,2.408,2.24c0,1.232-.924,2.072-2.632,3.556l-7,6.02V0Zm7.42-7.672h1.176c1.12,0,3.3,0,3.3,1.932,0,1.26-.952,1.96-2.744,1.96-1.624,0-2.94-.56-2.94-2.548H50.176c0,4.648,3.248,6.636,7.42,6.636,4.116,0,7.364-1.932,7.364-5.656,0-2.3-1.26-3.892-3.808-4.48a4.428,4.428,0,0,0,3.388-4.424c0-3.388-2.828-5.348-6.58-5.348-3.36,0-7.616,1.568-7.616,6.748h4.48a2.543,2.543,0,0,1,2.856-2.66c1.54,0,2.268.756,2.268,1.876,0,1.232-.84,2.128-2.772,2.128h-1.26Z" transform="translate(204.136 31)"/><g transform="translate(-63.364 -62.5)"><g transform="translate(-0.121 1)"><path class="d" d="M3268.885,351.638c-2.081-.249-4.107.735-5.45,3.374s-.815,4.486,0,6.859,3.438,6.747,2.892,7.114c-.236.158-.472-.775-3.893-1.108a49.24,49.24,0,0,0-9.788-.222c-5.25.576-6.7,4.067-8.171,5.635s-3.581,7.3-3.988,8.792-.653,2.728,1.186,3.183c.8.2,1.343-.326,2.8,0a8.156,8.156,0,0,1,2.758.779c.736.463.186.578.186,1.074a2.453,2.453,0,0,1-.186.907l1.483.207a7.844,7.844,0,0,1,3.93-.816c2.637,0,5.45-.066,6.3.408s.241,1.056.321,2.107a15.81,15.81,0,0,1,0,2.1l1.333.728a18.25,18.25,0,0,1,2.35-4.522c1.606-2.224,2.114-1.507,4.041-4.264s3.036-3.567,4.227-6.97,2.188-5.788,1.594-8.012-3.045-7.521-3.188-8.226a1.362,1.362,0,0,1,.179-.827,1.65,1.65,0,0,1,.853-.4l-.8-.291-.6.076a5.587,5.587,0,0,1-.456-.545c-.394-.647.27-1.18.076-1.722a3.934,3.934,0,0,1-.468-1.874.78.78,0,0,1,.646-.735l3.711.051a3.167,3.167,0,0,0-1.034-1.741A6.35,6.35,0,0,0,3268.885,351.638Z" transform="translate(-2951.901 -196.934)"/><g transform="translate(1 1)"><path d="M3427.787,387.657a14.48,14.48,0,0,0,2.891,2.3c.89.741,1.143.384,1.78-.222s1.149-1.446,0-2.818-4.135-3.006-8.379-8.342-3.93-4.115-5.857-8.564c-1.053-2.429-.964-2.558-1.891-2.558a26.5,26.5,0,0,0-2.679-.071c-1.172.129-1.121,1.092-.992,2,.148.474.252.356.334.816.162.911-.445,1.237.186,2.113s.387-.611,2.632,1.112a43.127,43.127,0,0,1,6.673,6.3,18.914,18.914,0,0,1,3.744,5.265C3427.268,386.915,3426.7,386.36,3427.787,387.657Z" transform="translate(-3097.195 -211.115)"/><path d="M3268.954,575.03s-.593,1.652-1.384,3.339a15.315,15.315,0,0,0-1.375,2.874c-.326,2,1.09,2,2.277,2.743s6.376,1.038,8.527,2.929,2.6,7.748,2.6,7.748h1.394s-.941-2.994-.321-3.04c.359-.027,1,2.855,1,2.855l.926.185s-1.026-3.734-1.607-6.052a15.5,15.5,0,0,0-1.841-2.846,2.579,2.579,0,0,0-1.668-.964s-6.451-1.372-8.342-2.855,1.3-6.71,1.3-6.71Z" transform="translate(-2974.621 -384.941)"/><path d="M3350.7,599.579l-1.265,7.613.975,1.591,1.624-8.476Z" transform="translate(-3044.331 -405.488)"/><ellipse class="e" cx="0.897" cy="0.978" rx="0.897" ry="0.978" transform="matrix(0.914, -0.407, 0.407, 0.914, 315.426, 157.06)"/><ellipse cx="0.571" cy="0.489" rx="0.571" ry="0.489" transform="matrix(0.891, 0.454, -0.454, 0.891, 316.356, 156.786)"/></g></g><g transform="translate(-1.621 -2)"><path class="d" d="M3254.588,353.37a5.214,5.214,0,0,0-3.629,1.108,12.551,12.551,0,0,0-2.542,2.1,10.834,10.834,0,0,0-1.656,2.288,10.091,10.091,0,0,1,1.213-.723,9.16,9.16,0,0,0-1.33,1.679s2.011-1.88,2.123-1.312a5.851,5.851,0,0,0-1,1.033,5.482,5.482,0,0,0-.676,1.54s1.446-1.7,1.679-1.54-.624.531-1,1.54a4.474,4.474,0,0,0-.326,1.726s1.031-2.329,1.223-2.031a13.734,13.734,0,0,0-.243,1.565,18.566,18.566,0,0,0,.117,1.866s.446-3.093,1.026-2.939a7.267,7.267,0,0,1-.14,1.423s-.12,1.884-.117,2.053c0,.065.933-3.616,1.271-3.662s.81.9,1.155,2.053a20.056,20.056,0,0,1,.234,5.567c-.148,2.048-.834,4.717-2.988,5.532s-12.23,5.282-13.7,6.85-6.765,7.988-8.563,10.27c-2.115,3.1-3.9,7.01-2.44,7.336s1.671-.815,3.178-1.386.907-.693,3.251-1.141,2.565-.035,4.725-.391a11.622,11.622,0,0,1,2.781-.385c.407.126.514,1.025.514,1.025l1.273.092a5.033,5.033,0,0,1,2.5-2.291c.455-.192.638-.474,1.184-.512.378-.027.732,2.439.828,3.166a8,8,0,0,0,1.667-.792,5.049,5.049,0,0,0,.878-1.368,12.851,12.851,0,0,1,.887-2.249,9.79,9.79,0,0,1,1.24-1.675c1.607-2.224,2.114-2.6,4.041-5.356s1.079-2.082,2.271-5.485,1.947-5.827,1.651-9.406-1.055-8.935-1.055-8.935-.337-1.36.154-1.779a6.341,6.341,0,0,1,2.039-.28s-1.846-1.094-2.039-1.637-1-1.295-.907-1.748-.316-.591,0-.939.335-.466,1.263-.453a5.1,5.1,0,0,1,2.295,1.214,8.029,8.029,0,0,0-1.453-1.732A5.4,5.4,0,0,0,3254.588,353.37Z" transform="translate(-2925.619 -172.397)"/><path d="M3432.01,375c-.947-.049-1.344.121-3.3-1.424s-2.016-2.776-4.338-4.792a20.162,20.162,0,0,0-5.05-3.108,7.894,7.894,0,0,1-2.146-1.389,4.385,4.385,0,0,1-1.061-1.869c-.065-.162-.424-1.3.205-1.61s1.674-.546,3.358.984,1.522,2.817,4.306,5.083,6.831,4.921,7.026,5.05a13.177,13.177,0,0,1,1.651,1.651C3432.949,374,3432.957,375.049,3432.01,375Z" transform="translate(-3086.497 -178.456)"/><ellipse class="e" cx="0.571" cy="0.652" rx="0.571" ry="0.652" transform="translate(330.102 183.386) rotate(-52)"/><circle cx="0.326" cy="0.326" r="0.326" transform="matrix(0.891, 0.454, -0.454, 0.891, 330.825, 182.806)"/><path d="M3300.308,628.987a9.265,9.265,0,0,1,1.508,0l-.447-2.564A8.893,8.893,0,0,1,3301.1,624c.111-.9-.377-1.333-.226-2.023a23.816,23.816,0,0,1,1.957-4.727l-1.466-.1s-1.794,4.5-1.917,4.621a3.466,3.466,0,0,0-.77,1.5,1.719,1.719,0,0,0,.321,1.23,7.5,7.5,0,0,1,.867,1.919A15.041,15.041,0,0,1,3300.308,628.987Z" transform="translate(-2988.329 -393.203)"/><path d="M3340.739,629.855a9.182,9.182,0,0,0,1.563,0s-.022-7.553,0-7.641.193-2.532.507-4.338a15.606,15.606,0,0,1,.749-2.884l-1.85.881-.771,4.734s-1.013,1.321-.969,1.784a15.549,15.549,0,0,0,.572,1.96Z" transform="translate(-3022.898 -391.394)"/></g></g><g transform="translate(-1218.854 -202.75)"><path class="d" d="M377.04-286.75l-44.055,6.313L300.25-286.75l8.651,31.8,25.72,5.612,34.371-5.612Z" transform="translate(1204.59 534.526)"/><path class="b" d="M299.9-287.071l33.087,6.381,44.383-6.36-8.179,32.32-34.58,5.646-.047-.01L308.7-254.739l-.04-.146Zm68.887,31.9,7.916-31.279-43.728,6.266L300.6-286.429l8.506,31.266,25.525,5.569Z" transform="translate(1204.59 534.526)"/><path class="c" d="M4992.649-1962c-1.593.267-43.747,21.112-42.9,20.9s37.7,7.4,37.7,7.4,47.295-6.756,48.229-7.044S4994.242-1962.267,4992.649-1962Z" transform="translate(-3449.749 2187.671)"/><path class="c" d="M4992.683-1962.252h0c.193,0,.781,0,7.68,3.233,3.881,1.819,9.09,4.348,14.666,7.121,5.275,2.624,10.487,5.273,14.3,7.267,2.008,1.051,3.585,1.9,4.688,2.515,1.883,1.055,1.9,1.166,1.922,1.318a.268.268,0,0,1-.188.3c-.942.29-46.335,6.777-48.268,7.052l-.043.006-.043-.009c-.358-.074-35.839-7.4-37.593-7.4h-.009a.278.278,0,0,1-.056.006h-.23l-.022-.231c-.014-.168.11-.239.243-.314.079-.045.2-.109.351-.191.3-.158.741-.387,1.316-.681,1.1-.564,2.731-1.383,4.7-2.368,4.06-2.028,9.3-4.621,14.383-7.114,6.321-3.1,21.129-10.333,22.122-10.5A.453.453,0,0,1,4992.683-1962.252Zm42.446,21.362c-1.875-1.193-10.6-5.728-20.713-10.754-5.5-2.733-10.62-5.216-14.417-6.993-5.99-2.8-7.11-3.113-7.313-3.114-.667.126-8.944,4.061-21.625,10.28-9.082,4.454-18.036,8.913-20.508,10.2,5.346.8,35.048,6.934,36.9,7.318C5002.789-1936.14,5031.065-1940.208,5035.129-1940.89Z" transform="translate(-3449.749 2187.671)"/><path class="d" d="M5011.291-1792.382l2.6,89.052,19.4,8.888,26-7.83-.121-90.1-27.532,4.352Z" transform="translate(-3492.098 2073.191)"/><path class="b" d="M5011.291-1792.632a.25.25,0,0,1,.052.005l20.3,4.353,27.486-4.345a.248.248,0,0,1,.2.057.249.249,0,0,1,.088.19l.121,90.1a.25.25,0,0,1-.178.24l-26,7.83a.251.251,0,0,1-.176-.012l-19.4-8.888a.251.251,0,0,1-.146-.22l-2.6-89.052a.252.252,0,0,1,.09-.2A.25.25,0,0,1,5011.291-1792.632Zm47.748,90.175-.12-89.622-27.243,4.307a.255.255,0,0,1-.091,0l-20.034-4.3,2.585,88.578,19.169,8.784Z" transform="translate(-3492.098 2073.191)"/><path class="c" d="M4976.75-1888.75c-.687.219,5.707,22.744,7.192,24.018s17.942,5.839,19.321,4.247-.143-23.762-.813-23.955S4977.438-1888.969,4976.75-1888.75Z" transform="translate(-3468.343 2138.811)"/><path class="c" d="M4976.843-1889.008c1.033,0,8.756,1.311,13.269,2.092,5.663.98,12.041,2.129,12.408,2.235.173.05.241.235.292.405a94.161,94.161,0,0,1,1.111,12.255c.135,2.971.181,5.577.132,7.538-.079,3.2-.381,3.905-.6,4.16-.248.286-.774.419-1.657.419a48.12,48.12,0,0,1-10.16-1.89c-3.261-.876-7.11-2.11-7.856-2.75-.138-.119-.559-.479-1.853-4.173-.721-2.057-1.6-4.847-2.49-7.855-1.294-4.4-3.154-11.268-2.973-12.158a.317.317,0,0,1,.211-.26A.547.547,0,0,1,4976.843-1889.008Zm25.461,4.79c-.751-.163-6.167-1.147-12.278-2.2-7.356-1.274-12.081-2.025-13.081-2.081a93.058,93.058,0,0,0,2.958,11.752c1.935,6.581,3.623,11.336,4.2,11.831s3.864,1.627,7.661,2.646a47.706,47.706,0,0,0,10.03,1.873c.961,0,1.214-.172,1.279-.247.124-.143.419-.827.485-4.081.042-2.065-.015-4.787-.166-7.872-.132-2.722-.332-5.562-.547-7.791A20.837,20.837,0,0,0,5002.3-1884.219Z" transform="translate(-3468.343 2138.811)"/><path class="c" d="M5084.58-1883.057c-.577.467.112,22.4,1.174,24.2s22.824-1.592,25.054-3.609,7.987-23.182,7.431-24.2-8.888.9-17.3,1.8S5085.156-1883.524,5084.58-1883.057Z" transform="translate(-3541.705 2137.391)"/><path class="c" d="M5117.027-1887.208h0c.841,0,1.269.126,1.43.422.075.137.249.458-.589,4.1-.5,2.192-1.255,5.039-2.062,7.813-.761,2.616-3.356,11.255-4.832,12.59-1.265,1.144-7.689,2.377-9.628,2.728a83.868,83.868,0,0,1-12.832,1.458c-2.308,0-2.8-.339-2.977-.635-.72-1.223-1.128-10.045-1.236-12.72-.115-2.862-.182-5.736-.182-7.885,0-3.675.174-3.816.3-3.919.409-.331,2.751-.557,8.011-1.037,2.541-.232,5.42-.494,8.474-.822,3.113-.334,6.2-.8,8.917-1.22A61.589,61.589,0,0,1,5117.027-1887.208Zm.988.657c-.021-.024-.178-.157-.988-.157h0a62.747,62.747,0,0,0-7.127.871c-2.726.416-5.816.888-8.939,1.223-3.058.328-5.94.591-8.482.823-2.164.2-4.033.368-5.4.525a10.722,10.722,0,0,0-2.311.386,91.824,91.824,0,0,0,.046,11.7c.278,6.692.732,11.481,1.156,12.2.038.065.34.388,2.546.388a83.351,83.351,0,0,0,12.743-1.45c5.011-.906,8.606-1.9,9.382-2.606.907-.821,2.688-5.5,4.646-12.219.8-2.737,1.548-5.567,2.058-7.765C5118.1-1885.9,5118.035-1886.474,5118.016-1886.551Z" transform="translate(-3541.705 2137.391)"/><path class="c" d="M5069.51-1844.8c-.059-1.216-1.438-29.789-1.223-30.869l.49.1c-.151.765.654,18.806,1.231,30.746Z" transform="translate(-3530.939 2129.667)"/><path class="c" d="M5040.667-1760c.242-.723,3.4.425,3.4,1.062s.4,10.456,0,10.828-3.062-.512-3.4-.849S5040.426-1759.277,5040.667-1760Z" transform="translate(-3511.905 2051.063)"/><path class="c" d="M5114-1762.044c.2-.49,3.239-1.374,3.822-.956s.256,12.192,0,12.633-3.528,1.054-3.822.637S5113.8-1761.554,5114-1762.044Z" transform="translate(-3561.884 2053.109)"/><path class="c" d="M5040.667-1660c.382-.568,3.384.5,3.822,1.274s.484,11.146,0,11.677-3.487-.344-3.822-1.061S5040.286-1659.432,5040.667-1660Z" transform="translate(-3511.905 1982.911)"/><path class="b" d="M5079.658-1683.431h-.5l.28-93.813h.5Z" transform="translate(-3538.257 2062.119)"/><path class="c" d="M5114-1657.393c.267-.584,3.286-1.683,3.822-1.274s.4,10.828,0,11.253-3.482,1.21-3.822.849S5113.734-1656.809,5114-1657.393Z" transform="translate(-3561.884 1982.003)"/><path class="c" d="M5046-1562.667c.318-.544,2.445.883,2.76,1.8s.455,10.826,0,11.253-2.4-.707-2.76-1.274S5045.682-1562.122,5046-1562.667Z" transform="translate(-3515.539 1916.576)"/><path class="c" d="M5113.973-1563.24c.761-1.3,6.827-2.59,7.628-1.958s.42,19.856.42,19.856l-8.049,2.289S5113.212-1561.936,5113.973-1563.24Z" transform="translate(-3561.855 1918.423)"/><path class="d" d="M1.248,27.071A.25.25,0,0,1,1,26.764C2.65,19.687,6.383-1.476,6.421-1.689a.25.25,0,0,1,.29-.2.25.25,0,0,1,.2.29c-.038.213-3.773,21.39-5.422,28.48A.25.25,0,0,1,1.248,27.071Z" transform="translate(1536.353 227.265)"/><path class="d" d="M5084.228-1863.045l-.22-.449c.232-.113.937-.458,17.337-1.8,8.084-.66,16.1-1.242,16.177-1.248l.036.5C5104.719-1865.108,5085.246-1863.542,5084.228-1863.045Z" transform="translate(-3541.889 2123.533)"/><path class="d" d="M5086.714-1819.174a.169.169,0,0,0,.048-.035l-.354-.354c.1-.1.207-.207,4.785-.756,2.386-.286,5.68-.653,9.792-1.092,7-.747,14.04-1.451,14.11-1.458l.05.5C5104.14-1821.271,5087.487-1819.512,5086.714-1819.174Z" transform="translate(-3543.709 2093.773)"/><path class="d" d="M5006.988-1865.761l-26.055-3.63.069-.5,26.055,3.63Z" transform="translate(-3471.693 2125.805)"/><path class="d" d="M5017.4-1818.289l-22.174-3.45.077-.494,22.174,3.45Z" transform="translate(-3481.463 2093.319)"/><path class="d" d="M5000.213-1863.058c-.181-.978-4.425-23.959-4.425-25.418h.5c0,1.131,2.889,17.061,4.416,25.327Z" transform="translate(-3482.021 2138.857)"/><path class="d" d="M5021.719-1856.652l-3.7-26.019.5-.07,3.7,26.019Z" transform="translate(-3496.628 2134.381)"/><path class="d" d="M5040.606-1853.322l-3.846-26.019.495-.073,3.846,26.019Z" transform="translate(-3509.405 2132.166)"/><path class="d" d="M5104.6-1852.574l-.5-.034,1.8-26.486.5.034Z" transform="translate(-3555.295 2131.938)"/><path class="d" d="M5128.913-1855.022l-.5-.045,2.372-26.415.5.045Z" transform="translate(-3571.88 2133.529)"/><path class="d" d="M5156.5-1859.166l-.5-.06,3.126-26.091.5.06Z" transform="translate(-3590.735 2136.028)"/><path class="b" d="M5034.559-1696.223l-.057-.015-21.231-5.52.126-.484,21.174,5.505,25.845-5.508.1.489Z" transform="translate(-3493.275 2011.536)"/><path class="b" d="M5036.053-1597.8l-.071-.024c-7.7-2.662-19.425-6.61-20.266-6.61h-.008a.144.144,0,0,0,.038-.008l-.158-.474c.169-.055.478-.159,10.6,3.23,4.64,1.554,9.267,3.15,9.891,3.365l25.923-6.6.123.485Z" transform="translate(-3494.866 1945.211)"/></g></g></svg>