<svg xmlns="http://www.w3.org/2000/svg" xmlns:xlink="http://www.w3.org/1999/xlink" width="600" height="406" viewBox="0 0 600 406"><defs><style>.a{clip-path:url(#f);}.b,.c{opacity:0.6;}.b{fill:url(#a);}.c{fill:url(#b);}.d{fill:none;stroke:#fff;stroke-width:2px;fill-rule:evenodd;}.e{fill:#fff;}.f{fill:#882910;}.g{fill:#b71a23;}.h{fill:#b71c20;}.i{filter:url(#c);}</style><linearGradient id="a" x1="0.969" y1="0.5" x2="0.041" y2="0.5" gradientUnits="objectBoundingBox"><stop offset="0" stop-color="#806748"/><stop offset="1" stop-color="#6c6c6c" stop-opacity="0.149"/></linearGradient><linearGradient id="b" x1="0.969" y1="0.5" x2="0.041" y2="0.5" gradientUnits="objectBoundingBox"><stop offset="0" stop-color="#d8d8d8"/><stop offset="1" stop-color="#6c6c6c" stop-opacity="0.149"/></linearGradient><filter id="c" x="117.983" y="106.504" width="403.27" height="104.553" filterUnits="userSpaceOnUse"><feOffset dy="5" input="SourceAlpha"/><feGaussianBlur stdDeviation="5" result="d"/><feFlood flood-opacity="0.161"/><feComposite operator="in" in2="d"/><feComposite in="SourceGraphic"/></filter><clipPath id="f"><rect width="600" height="406"/></clipPath></defs><g id="e" class="a"><g transform="translate(0)"><g transform="translate(600.3) rotate(90)"><path class="b" d="M30,0H406a0,0,0,0,1,0,0V397a0,0,0,0,1,0,0H0a0,0,0,0,1,0,0V30A30,30,0,0,1,30,0Z" transform="translate(0 0.3)"/></g><g transform="translate(397.3) rotate(90)"><path class="c" d="M0,0H406a0,0,0,0,1,0,0V397a0,0,0,0,1,0,0H30A30,30,0,0,1,0,367V0A0,0,0,0,1,0,0Z" transform="translate(0 0.3)"/></g></g><g transform="translate(132.629 203.892)"><path class="d" d="M526.253,547.391V476.128q0-6.344-3.123-9.863a10.41,10.41,0,0,0-8.176-3.518,19.447,19.447,0,0,0-11.2,3.866v80.777H445.872V476.128q0-6.245-3.024-9.812a10.274,10.274,0,0,0-8.277-3.568q-5.449,0-11.2,4.063v80.58H362.12V467.157a10.748,10.748,0,0,0-.709-.891,10.41,10.41,0,0,0-8.176-3.518,19.453,19.453,0,0,0-11.2,3.866v80.777H284.151V476.128q0-6.245-3.022-9.812a10.272,10.272,0,0,0-8.277-3.568q-5.45,0-11.2,4.063v80.58H200.4V428.057h61.253v14.966a48.249,48.249,0,0,1,36.772-15.958q26.068,0,38.556,20.615,10.208-10.7,20.467-15.659a46.8,46.8,0,0,1,4.673-1.952c10.964-2.675,29-2.013,61.252-2.013v14.966a48.249,48.249,0,0,1,36.772-15.958q26.068,0,38.556,20.615,10.208-10.7,20.467-15.659a52.532,52.532,0,0,1,23.143-4.956q19.427,0,30.626,11.894t11.2,33.5v74.93Z" transform="translate(-200.399 -427.066)"/><g transform="translate(6.084 6.084)"><path class="d" d="M531.708,540.678h45.714V471.832c0-10.507-2.115-21.44-9.545-29.329-6.977-7.409-16.212-9.982-26.2-9.982a46.668,46.668,0,0,0-20.5,4.351c-7.05,3.405-13.338,8.747-18.71,14.38l-5.486,5.754-4.12-6.8c-7.582-12.516-18.894-17.684-33.352-17.684a42.184,42.184,0,0,0-32.32,14.021L416.658,457.85V433.5c-10.805-.043-21.634-.167-32.422.018-6.588.112-14.538.243-21,1.763a40.83,40.83,0,0,0-3.771,1.593c-7.05,3.405-13.339,8.747-18.71,14.38l-5.487,5.754-4.12-6.8c-7.582-12.516-18.894-17.684-33.352-17.684a42.18,42.18,0,0,0-32.319,14.021L254.939,457.85V433.512H205.854V540.678h49.085V463.032l2.573-1.819c4.354-3.077,9.308-5.178,14.711-5.178a16.334,16.334,0,0,1,12.917,5.719c3.281,3.871,4.466,8.762,4.466,13.745v65.179H335.32V462.807l2.608-1.816a25.546,25.546,0,0,1,14.677-4.956A16.558,16.558,0,0,1,366.446,463l1.129,1.584v76.1h49.084V463.032l2.572-1.819c4.354-3.077,9.31-5.178,14.712-5.178a16.343,16.343,0,0,1,12.919,5.719c3.281,3.871,4.466,8.762,4.466,13.745v65.179h45.714v-77.87l2.607-1.816a25.539,25.539,0,0,1,14.677-4.958,16.483,16.483,0,0,1,12.728,5.564c3.428,3.865,4.655,8.835,4.655,13.9Z" transform="translate(-205.854 -432.521)"/><path class="d" d="M537.163,533.965h33.546V471.2c0-8.846-1.6-18.482-7.89-25.159-5.793-6.15-13.513-8.068-21.769-8.068a40.642,40.642,0,0,0-17.85,3.745,51.953,51.953,0,0,0-11.28,7.656q.882-.055,1.776-.055a22.56,22.56,0,0,1,17.278,7.61c4.439,5,6.189,11.357,6.189,17.939v59.094Zm-46.478-75.211-3.65-6.026c-6.467-10.672-15.837-14.752-28.149-14.752-10.872,0-19.722,3.676-27.215,11.4q.816-.049,1.643-.049a22.408,22.408,0,0,1,17.561,7.87c4.231,4.994,5.908,11.229,5.908,17.679v59.094h33.546V459l.357-.248Zm-80.739,13.921V438.923c-8.748-.049-17.5-.1-26.234.047-5.966.1-13.439.193-19.36,1.522q-1.462.549-2.871,1.229a51.916,51.916,0,0,0-11.279,7.656q.88-.055,1.774-.055a22.558,22.558,0,0,1,17.279,7.611,22.91,22.91,0,0,1,1.517,1.908l2.257,3.169v71.955h36.916V472.675Zm-80.981-13.922-3.649-6.024c-6.467-10.674-15.837-14.753-28.149-14.753-10.872,0-19.721,3.676-27.215,11.4q.816-.049,1.643-.049a22.4,22.4,0,0,1,17.559,7.87c4.233,4.994,5.908,11.229,5.908,17.679v59.094h33.546V459l.357-.249Zm-80.738,13.922V438.967H211.309v95h36.917Z" transform="translate(-205.225 -431.892)"/><path class="d" d="M542.618,527.252H564V470.574c0-7.138-1.12-15.556-6.235-20.988-4.588-4.872-10.842-6.155-17.34-6.155a35.761,35.761,0,0,0-13.661,2.45,28.5,28.5,0,0,1,8.136,6.384c5.44,6.133,7.721,13.89,7.721,21.976v53.011Zm-59-68.016-2.413-3.984c-5.348-8.828-12.776-11.821-22.945-11.821a32.17,32.17,0,0,0-12.242,2.215,27.861,27.861,0,0,1,8.871,6.984c5.176,6.109,7.351,13.7,7.351,21.611v53.011h21.378V459.236ZM403.232,487.5V444.346c-6.687-.031-13.375-.036-20.047.078-5.335.09-12.323.146-17.713,1.284q-.216.085-.432.174a28.486,28.486,0,0,1,8.136,6.385,28.862,28.862,0,0,1,1.923,2.417l3.385,4.752v67.816h24.748V487.5Zm-81.338-28.266-2.412-3.983c-5.348-8.828-12.775-11.821-22.945-11.821a32.17,32.17,0,0,0-12.242,2.215,27.884,27.884,0,0,1,8.871,6.983c5.176,6.109,7.35,13.706,7.35,21.612v53.011h21.378V459.235ZM241.513,487.5V444.422H216.764v82.829h24.749Z" transform="translate(-204.596 -431.263)"/><path class="d" d="M548.073,520.539h9.21V469.945c0-5.349-.69-12.685-4.581-16.817-3.318-3.523-8.151-4.23-12.8-4.243,5.668,7.04,8.166,15.7,8.166,24.726v46.927ZM476.9,460.307l-1.534-2.532c-3.86-6.371-8.805-8.527-15.761-8.846,5.614,7.064,8.085,15.695,8.085,24.683v46.927h9.21V460.307Zm-80.383,42.02V449.782c-4.624,0-9.245.017-13.859.1-1.131.019-2.367.036-3.659.062q.216.289.426.584l4.513,6.337v63.677h12.58V502.327ZM315.182,460.3l-1.532-2.528c-3.861-6.372-8.806-8.528-15.763-8.847,5.614,7.064,8.084,15.695,8.084,24.683v46.927h9.211V460.3ZM234.8,502.327v-52.45H222.219v70.661H234.8Z" transform="translate(-203.967 -430.634)"/></g></g><g transform="translate(36.187 141.348)"><g transform="translate(0)"><path class="e" d="M3293.914,351.671c-3.9-.466-7.69,1.376-10.206,6.317s-1.525,8.4,0,12.843,6.439,12.634,5.416,13.32c-.441.3-.883-1.452-7.288-2.075s-12.744-1.029-18.328-.417c-9.83,1.079-12.547,7.616-15.3,10.552s-6.706,13.676-7.468,16.462-1.222,5.109,2.221,5.96c1.5.372,2.516-.61,5.247,0s3.787.591,5.165,1.458.349,1.083.349,2.01a4.588,4.588,0,0,1-.349,1.7l2.778.387s2.419-1.527,7.357-1.527,10.207-.124,11.8.764.451,1.978.6,3.945a29.577,29.577,0,0,1,0,3.924l2.5,1.362a34.167,34.167,0,0,1,4.4-8.468c3.008-4.165,3.958-2.822,7.565-7.983s5.684-6.679,7.915-13.051,4.1-10.837,2.985-15-5.7-14.082-5.97-15.4a2.551,2.551,0,0,1,.336-1.549,3.088,3.088,0,0,1,1.6-.749l-1.494-.545-1.115.142a10.485,10.485,0,0,1-.853-1.02c-.737-1.212.5-2.209.142-3.225s-1.068-2.225-.877-3.51a1.461,1.461,0,0,1,1.209-1.375l6.948.095a5.932,5.932,0,0,0-1.935-3.259C3297.594,352.3,3294.494,351.74,3293.914,351.671Z" transform="translate(-3240.198 -351.601)"/><path d="M3441.1,405.374c2.033,2.428,3.748,2.916,5.414,4.3s2.14.719,3.333-.417,2.151-2.707,0-5.276-7.742-5.628-15.689-15.619-7.359-7.706-10.968-16.036c-1.972-4.548-1.806-4.79-3.541-4.79a49.637,49.637,0,0,0-5.015-.133c-2.2.241-2.239,1.732-2,3.43.278.888.611.979.765,1.84.3,1.706-1.044,2.114.224,3.968s.708-1,4.912,2.224a78.943,78.943,0,0,1,12.635,11.649c5.047,5.692,5.068,6.248,7.011,9.858S3439.062,402.947,3441.1,405.374Z" transform="translate(-3360.028 -362.542)"/><path d="M3271.4,575.03s-1.11,3.093-2.592,6.251c-.927,1.974-2.328,3.879-2.573,5.382-.61,3.746,2.042,3.749,4.264,5.137s11.939,1.944,15.965,5.484,4.863,14.508,4.863,14.508h2.61s-1.762-5.606-.6-5.692c.672-.05,1.875,5.346,1.875,5.346l1.734.347s-1.92-6.991-3.009-11.332a29.009,29.009,0,0,0-3.447-5.329,4.827,4.827,0,0,0-3.123-1.8s-12.079-2.568-15.62-5.345,2.431-12.565,2.431-12.565Z" transform="translate(-3258.227 -506.831)"/><path d="M3351.8,599.579l-2.369,14.254,1.826,2.979,3.04-15.87Z" transform="translate(-3316.091 -523.886)"/><ellipse class="f" cx="1.679" cy="1.831" rx="1.679" ry="1.831" transform="matrix(0.914, -0.407, 0.407, 0.914, 52.67, 6.353)"/><path d="M1.068,0A1,1,0,0,1,2.137.916a1,1,0,0,1-1.068.916A1,1,0,0,1,0,.916,1,1,0,0,1,1.068,0Z" transform="matrix(0.891, 0.454, -0.454, 0.891, 54.412, 5.841)"/></g><g transform="translate(19.105 47.333)"><path class="e" d="M3281.5,353.394a9.764,9.764,0,0,0-6.8,2.074,23.522,23.522,0,0,0-4.761,3.927,20.3,20.3,0,0,0-3.1,4.284,18.906,18.906,0,0,1,2.272-1.354,17.128,17.128,0,0,0-2.49,3.145s3.766-3.52,3.974-2.458a10.981,10.981,0,0,0-1.878,1.933,10.28,10.28,0,0,0-1.266,2.883s2.708-3.188,3.144-2.883-1.169.994-1.878,2.883a8.383,8.383,0,0,0-.611,3.232s1.929-4.361,2.29-3.8a25.793,25.793,0,0,0-.455,2.93,34.688,34.688,0,0,0,.219,3.494s.835-5.792,1.921-5.5a13.605,13.605,0,0,1-.261,2.664s-.226,3.527-.22,3.844c0,.121,1.748-6.77,2.38-6.857s1.516,1.69,2.163,3.843a37.541,37.541,0,0,1,.439,10.424c-.278,3.835-1.563,8.833-5.594,10.359s-22.9,9.889-25.653,12.825-12.668,14.957-16.034,19.23c-3.959,5.8-7.3,13.125-4.57,13.736s3.129-1.526,5.952-2.595,1.7-1.3,6.087-2.137,4.8-.066,8.846-.731c2.4-.394,4.447-.956,5.207-.72s.962,1.918.962,1.918l2.384.172a9.428,9.428,0,0,1,4.686-4.289c.852-.359,1.194-.887,2.217-.959.708-.05,1.371,4.567,1.55,5.927a14.963,14.963,0,0,0,3.121-1.483,9.436,9.436,0,0,0,1.644-2.561,24.1,24.1,0,0,1,1.661-4.21,18.351,18.351,0,0,1,2.321-3.137c3.009-4.165,3.958-4.867,7.566-10.028s2.02-3.9,4.251-10.27,3.646-10.91,3.091-17.613-1.976-16.73-1.976-16.73-.63-2.547.289-3.331a11.875,11.875,0,0,1,3.818-.524s-3.456-2.049-3.818-3.065-1.881-2.425-1.7-3.274-.591-1.106,0-1.758.627-.872,2.364-.849,4.3,2.274,4.3,2.274a15.019,15.019,0,0,0-2.72-3.244C3285.17,353.573,3282.081,353.463,3281.5,353.394Z" transform="translate(-3223.739 -353.342)"/><path d="M3446.043,387.581c-1.772-.091-2.516.227-6.183-2.667s-3.775-5.2-8.123-8.972a37.758,37.758,0,0,0-9.457-5.819,14.786,14.786,0,0,1-4.02-2.6,8.932,8.932,0,0,1-2.095-3.271c-.121-.3-.685-2.671.494-3.245s3.135-1.022,6.287,1.842,2.85,5.274,8.063,9.518,12.791,9.214,13.156,9.457a24.7,24.7,0,0,1,3.092,3.092C3447.8,385.7,3447.817,387.672,3446.043,387.581Z" transform="translate(-3357.304 -358.371)"/><ellipse class="f" cx="1.068" cy="1.221" rx="1.068" ry="1.221" transform="translate(59.883 4.57) rotate(-52)"/><ellipse cx="0.61" cy="0.61" rx="0.61" ry="0.61" transform="matrix(0.891, 0.454, -0.454, 0.891, 61.236, 3.483)"/><path d="M3301.742,639.312a17.313,17.313,0,0,1,2.823,0l-.837-4.8a16.667,16.667,0,0,1-.5-4.535c.208-1.69-.707-2.5-.422-3.788.782-3.548,3.664-8.852,3.664-8.852l-2.746-.182s-3.359,8.424-3.589,8.652a6.489,6.489,0,0,0-1.441,2.809,3.213,3.213,0,0,0,.6,2.3,14.072,14.072,0,0,1,1.624,3.592A28.211,28.211,0,0,1,3301.742,639.312Z" transform="translate(-3275.795 -536.628)"/><path d="M3341.413,642.822a17.194,17.194,0,0,0,2.927,0s-.041-14.142,0-14.307.362-4.741.949-8.122a29.242,29.242,0,0,1,1.4-5.4l-3.464,1.649-1.443,8.864s-1.9,2.474-1.815,3.34a29.24,29.24,0,0,0,1.072,3.67Z" transform="translate(-3304.489 -535.126)"/></g></g><path class="g" d="M21.034,21.034,13.132.7H7.9L0,21.034H5.142l1.453-4.242h7.728l1.453,4.242ZM10.459,5.636l2.3,6.624H8.164Zm25.683,5.23c-.232-3.719-3.428-5.317-7.06-5.317-3.922,0-6.479,1.859-6.479,5.2,0,3.719,3.283,4.184,6.275,4.619,2.179.32,3.051.465,3.051,1.22s-.726,1.1-2.092,1.1c-1.685,0-2.586-.581-2.963-1.482H22.2c.349,3.632,4.067,5.142,7.408,5.142,3.719,0,6.769-1.83,6.769-5.2,0-3.6-3.544-4.1-6.275-4.5-1.83-.261-3.138-.494-3.138-1.395,0-.61.639-1.046,1.976-1.046,1.54,0,2.528.494,2.673,1.656Zm7.321-6.479V0H38.844V4.387Zm0,16.647V5.811H38.844V21.034ZM53.893,5.549c-3.806,0-6.886,1.569-7.467,5.375h4.416A2.5,2.5,0,0,1,53.515,9.21c1.249,0,2.034.407,2.034,1.336,0,1.046-.784,1.191-1.54,1.307l-2.7.378c-1.947.261-5.084,1.046-5.084,4.561,0,2.847,2.092,4.561,5.026,4.561a5.332,5.332,0,0,0,4.707-2.528v2.208h4.271V10.895C60.226,7.321,57.989,5.549,53.893,5.549ZM52.615,17.606c-1.191,0-1.714-.465-1.714-1.249,0-1.1,1.046-1.336,1.772-1.453l1.046-.174c.784-.145,1.365-.261,1.888-.407v.523A2.75,2.75,0,0,1,52.615,17.606Z" transform="translate(145.941 298.277) rotate(-90)"/><g class="i" transform="matrix(1, 0, 0, 1, 0, 0)"><path class="g" d="M2.748-6.037h9.09c8.806,0,12.748-6.392,12.748-12.89,0-6.463-3.835-11.967-12.215-11.967H2.748Zm9.729-19.317c4.616,0,6.214,2.7,6.214,6.463,0,4.048-1.917,7.279-6.889,7.279H8.572V-25.354Zm33.733,9.3c0-6.143-3.8-8.913-8.735-8.913-6.179,0-9.339,4.51-9.339,9.871,0,6.072,3.906,9.445,9.268,9.445,4.226,0,7.99-2.1,8.7-6.321H40.53c-.426.994-1.349,1.527-2.912,1.527a3.551,3.551,0,0,1-3.906-3.231h12.5ZM33.818-17.187a3.609,3.609,0,0,1,3.835-2.983c2.166,0,3.231,1.136,3.231,2.983ZM61.906-13c-.213,1.385-1.314,2.2-3.089,2.2-2.557,0-3.657-1.882-3.657-4.474,0-2.379.959-4.545,3.835-4.545,1.775,0,2.734.71,2.912,2.237h5.61c-.249-4.474-3.586-7.386-8.664-7.386-6.25,0-9.445,4.545-9.445,9.871,0,5.113,2.983,9.445,9.232,9.445,5.184,0,8.664-2.912,8.877-7.35Zm26.88-3.054c0-6.143-3.8-8.913-8.735-8.913-6.179,0-9.339,4.51-9.339,9.871,0,6.072,3.906,9.445,9.268,9.445,4.226,0,7.99-2.1,8.7-6.321H83.1c-.426.994-1.349,1.527-2.912,1.527a3.551,3.551,0,0,1-3.906-3.231h12.5ZM76.394-17.187a3.609,3.609,0,0,1,3.835-2.983c2.166,0,3.231,1.136,3.231,2.983ZM93.225-6.037h5.646V-16.8c0-2.166,1.172-3.16,2.805-3.16a2.169,2.169,0,0,1,2.45,2.415v11.5h5.646V-16.8c0-2.166,1.172-3.16,2.805-3.16a2.169,2.169,0,0,1,2.45,2.415v11.5h5.646v-12.57c0-4.155-2.734-6.356-6.072-6.356-2.77,0-4.865.923-6.037,3.338-.639-2.379-2.7-3.338-4.865-3.338a5.316,5.316,0,0,0-5.007,2.876v-2.557H93.225Zm44.209-18.926c-2.486,0-4.616.994-5.61,2.947v-9.268h-5.646V-6.037h5.22V-8.842c.639,1.7,2.7,3.2,5.823,3.2,4.616,0,8.487-3.231,8.487-9.658C145.707-21.484,142.085-24.963,137.434-24.963ZM135.907-10.8c-2.237,0-4.119-1.456-4.119-4.545,0-3.054,1.846-4.474,4.119-4.474s4.048,1.42,4.048,4.474C139.955-12.251,138.144-10.8,135.907-10.8Zm31.07-5.255c0-6.143-3.8-8.913-8.735-8.913-6.179,0-9.339,4.51-9.339,9.871,0,6.072,3.906,9.445,9.268,9.445,4.226,0,7.99-2.1,8.7-6.321H161.3c-.426.994-1.349,1.527-2.912,1.527a3.551,3.551,0,0,1-3.906-3.231h12.5Zm-12.393-1.136a3.609,3.609,0,0,1,3.835-2.983c2.166,0,3.231,1.136,3.231,2.983Zm16.831,11.15h5.646V-14.95c0-2.983,1.1-4.368,3.977-4.368h2.024v-5.539h-1.882a4.286,4.286,0,0,0-4.3,3.48v-3.267h-5.468Zm41.936-18.039c-.462-4.829-3.977-6.818-8.487-6.818-5.291,0-10.262,3.586-10.262,12.712,0,9.445,5.078,12.535,10.156,12.535,4.9,0,8.984-3.338,8.984-8.664,0-4.829-3.231-8.167-7.919-8.167a6.824,6.824,0,0,0-5.646,2.486c0-3.8,1.74-6.427,4.758-6.427a2.572,2.572,0,0,1,2.841,2.344Zm-8.771,6.321a3.35,3.35,0,0,1,3.657,3.622,3.583,3.583,0,0,1-3.693,3.906,3.714,3.714,0,0,1-3.764-3.906A3.53,3.53,0,0,1,204.581-17.755Zm31.425,3.16v-4.581H225.815v4.581Zm26.383-4.119a5.353,5.353,0,0,0,3.977-5.326c0-4.687-3.87-6.853-8.735-6.853S248.9-28.727,248.9-24.04a5.353,5.353,0,0,0,3.977,5.326,5.839,5.839,0,0,0-4.616,5.93c0,4.581,3.942,7.137,9.374,7.137s9.374-2.557,9.374-7.137A5.839,5.839,0,0,0,262.39-18.714Zm-7.919-4.723c0-1.314.817-2.628,3.16-2.628s3.16,1.314,3.16,2.628c0,1.491-1.1,2.592-3.16,2.592S254.471-21.945,254.471-23.437ZM257.6-10.476c-2.45,0-3.515-1.349-3.515-3.054,0-1.775,1.207-3.089,3.551-3.089s3.551,1.314,3.551,3.089C261.182-11.825,260.046-10.476,257.6-10.476Zm13.671-1.456v5.575h2.805c-.107,2.237-1.207,3.48-4.048,3.906l.5,2.947c3.3-.355,6.782-2.166,6.782-7.563v-4.865Zm36.716,5.894v-5.291H297.4l4.3-3.444c3.231-2.592,5.93-4.829,5.93-8.735,0-4.9-3.622-7.386-8.38-7.386-5.362,0-10.049,3.16-10.049,9.516h5.681c0-3.125,1.846-4.332,3.87-4.332,1.917,0,3.054,1.065,3.054,2.841,0,1.562-1.172,2.628-3.338,4.51l-8.877,7.634v4.687Zm12.5-24.856c-6.463,0-9.126,4.3-9.126,12.606s2.663,12.641,9.126,12.641,9.126-4.3,9.126-12.606S326.945-30.893,320.482-30.893Zm0,4.829c2.876,0,3.3,2.876,3.3,7.812s-.426,7.776-3.3,7.776-3.3-2.876-3.3-7.812S317.606-26.064,320.482-26.064ZM351.766-6.037v-5.291H341.184l4.3-3.444c3.231-2.592,5.93-4.829,5.93-8.735,0-4.9-3.622-7.386-8.38-7.386-5.362,0-10.049,3.16-10.049,9.516h5.681c0-3.125,1.846-4.332,3.87-4.332,1.917,0,3.054,1.065,3.054,2.841,0,1.562-1.172,2.628-3.338,4.51l-8.877,7.634v4.687Zm10.475-9.729h1.491c1.42,0,4.19,0,4.19,2.45,0,1.6-1.207,2.486-3.48,2.486-2.06,0-3.728-.71-3.728-3.231h-5.752c0,5.894,4.119,8.416,9.41,8.416,5.22,0,9.339-2.45,9.339-7.173,0-2.912-1.6-4.936-4.829-5.681a5.615,5.615,0,0,0,4.3-5.61c0-4.3-3.586-6.782-8.345-6.782-4.261,0-9.658,1.989-9.658,8.558h5.681c0-2.131,1.385-3.373,3.622-3.373,1.953,0,2.876.959,2.876,2.379,0,1.562-1.065,2.7-3.515,2.7h-1.6ZM.44,11.879v5.539H8.465V36.735h5.823V17.418h8.025V11.879Zm32.136,5.93c-4.652,0-8.416,1.917-9.126,6.569h5.4c.32-1.136,1.349-2.1,3.267-2.1,1.527,0,2.486.5,2.486,1.633,0,1.278-.959,1.456-1.882,1.6l-3.3.462c-2.379.32-6.214,1.278-6.214,5.575,0,3.48,2.557,5.575,6.143,5.575A6.517,6.517,0,0,0,35.1,34.036v2.7h5.22V24.342C40.317,19.975,37.582,17.809,32.576,17.809ZM31.013,32.545c-1.456,0-2.1-.568-2.1-1.527,0-1.349,1.278-1.633,2.166-1.775l1.278-.213c.959-.178,1.669-.32,2.308-.5v.639A3.361,3.361,0,0,1,31.013,32.545ZM51.289,16.388V11.027H45.643v5.362Zm0,20.347V18.128H45.643V36.735Zm5.5,0h5.646V26.65c0-2.557,1.314-3.835,3.409-3.835a2.713,2.713,0,0,1,2.912,3.054V36.735h5.646V24.982c0-4.4-1.988-7.173-6.356-7.173-2.521,0-4.758.817-5.788,2.912V18.128H56.793ZM88.218,17.809c-4.652,0-8.416,1.917-9.126,6.569h5.4c.32-1.136,1.349-2.1,3.267-2.1,1.527,0,2.486.5,2.486,1.633,0,1.278-.959,1.456-1.882,1.6l-3.3.462c-2.379.32-6.214,1.278-6.214,5.575,0,3.48,2.557,5.575,6.143,5.575a6.517,6.517,0,0,0,5.752-3.089v2.7h5.22V24.342C95.959,19.975,93.225,17.809,88.218,17.809ZM86.656,32.545c-1.456,0-2.1-.568-2.1-1.527,0-1.349,1.278-1.633,2.166-1.775l1.278-.213c.959-.178,1.669-.32,2.308-.5v.639A3.361,3.361,0,0,1,86.656,32.545Zm14.807,4.19h5.646V26.65c0-2.557,1.314-3.835,3.409-3.835a2.713,2.713,0,0,1,2.912,3.054V36.735h5.646V24.982c0-4.4-1.988-7.173-6.356-7.173-2.521,0-4.758.817-5.788,2.912V18.128h-5.468ZM124.4,30.841v5.575h2.805c-.107,2.237-1.207,3.48-4.048,3.906l.5,2.947c3.3-.355,6.782-2.166,6.782-7.563V30.841Zm16.157-18.962v5.539h8.025V36.735h5.823V17.418h8.025V11.879Zm32.136,5.93c-4.652,0-8.416,1.917-9.126,6.569h5.4c.32-1.136,1.349-2.1,3.267-2.1,1.527,0,2.486.5,2.486,1.633,0,1.278-.959,1.456-1.882,1.6l-3.3.462c-2.379.32-6.214,1.278-6.214,5.575,0,3.48,2.557,5.575,6.143,5.575a6.517,6.517,0,0,0,5.752-3.089v2.7h5.22V24.342C180.435,19.975,177.7,17.809,172.694,17.809Zm-1.562,14.736c-1.456,0-2.1-.568-2.1-1.527,0-1.349,1.278-1.633,2.166-1.775l1.278-.213c.959-.178,1.669-.32,2.308-.5v.639A3.361,3.361,0,0,1,171.132,32.545Zm20.276-16.157V11.027h-5.646v5.362Zm0,20.347V18.128h-5.646V36.735Zm25.282-7.315L213,18.128h-5.113l-3.657,11.363-3.657-11.363H194.6l6.853,18.607h5.22l3.657-10.617,3.657,10.617h5.22l6.818-18.607H220.2Zm20.666-11.611c-4.652,0-8.416,1.917-9.126,6.569h5.4c.32-1.136,1.349-2.1,3.267-2.1,1.527,0,2.486.5,2.486,1.633,0,1.278-.959,1.456-1.882,1.6l-3.3.462c-2.379.32-6.214,1.278-6.214,5.575,0,3.48,2.557,5.575,6.143,5.575a6.517,6.517,0,0,0,5.752-3.089v2.7h5.22V24.342C245.1,19.975,242.362,17.809,237.356,17.809Zm-1.562,14.736c-1.456,0-2.1-.568-2.1-1.527,0-1.349,1.278-1.633,2.166-1.775l1.278-.213c.959-.178,1.669-.32,2.308-.5v.639A3.361,3.361,0,0,1,235.793,32.545Zm14.807,4.19h5.646V26.65c0-2.557,1.314-3.835,3.409-3.835a2.713,2.713,0,0,1,2.912,3.054V36.735h5.646V24.982c0-4.4-1.988-7.173-6.356-7.173-2.521,0-4.758.817-5.788,2.912V18.128H250.6Z" transform="translate(132.54 147.79)"/></g><g transform="translate(438.291 153.56)"><path class="e" d="M387.3-286.75l-49.944,7.157-37.11-7.157,9.808,36.05,29.158,6.362,38.966-6.362Z" transform="translate(-294.53 312.089)"/><path class="h" d="M299.9-287.071l37.421,7.217,50.234-7.2-.081.319-9.159,36.19-39.15,6.392-.041-.009-29.289-6.39-.035-.129Zm78.059,36.139,9.007-35.59-49.655,7.115-36.8-7.1,9.68,35.579,28.986,6.324Z" transform="translate(-294.49 312.127)"/><path class="g" d="M4998.385-1962c-1.806.3-49.595,23.934-48.632,23.694s42.738,8.393,42.738,8.393,53.618-7.66,54.675-7.985S5000.19-1962.3,4998.385-1962Z" transform="translate(-4949.519 1962.279)"/><path class="g" d="M4998.395-1962.252h0c1.637,0,21.366,9.773,25.3,11.732,5.979,2.974,11.888,5.977,16.21,8.238,2.275,1.191,4.063,2.15,5.314,2.85,2.108,1.181,2.126,1.305,2.148,1.449a.241.241,0,0,1-.17.266c-1.062.327-52.519,7.68-54.709,7.993l-.039.006-.038-.008c-.406-.084-40.637-8.393-42.631-8.393h-.018a.246.246,0,0,1-.055.006h-.2l-.02-.2c-.013-.15.1-.215.243-.3.089-.051.223-.123.4-.216.338-.179.839-.439,1.491-.771,1.253-.64,3.1-1.568,5.332-2.685,4.6-2.3,10.545-5.239,16.306-8.065,7.163-3.515,23.944-11.709,25.061-11.9A.462.462,0,0,1,4998.395-1962.252Zm48.288,24.189c-1.827-1.214-11.851-6.433-23.563-12.254-13.834-6.875-23.771-11.494-24.724-11.495h-.005c-.714.12-10.13,4.595-24.571,11.678-10.513,5.156-20.844,10.3-23.385,11.641,5.482.779,40.017,7.909,42.035,8.326C5010.068-1932.68,5042.689-1937.373,5046.683-1938.063Z" transform="translate(-4949.488 1962.308)"/><path class="e" d="M5011.292-1792.382l2.946,100.956,21.99,10.076,29.478-8.876-.137-102.144-31.212,4.934Z" transform="translate(-4989.301 1855.17)"/><path class="g" d="M4976.757-1888.749c-.779.248,6.47,25.784,8.153,27.228s20.341,6.619,21.9,4.815-.163-26.939-.922-27.157S4977.536-1889,4976.757-1888.749Z" transform="translate(-4966.994 1916.677)"/><path class="g" d="M4976.833-1889.008h0c1.166,0,9.918,1.486,15.031,2.371,6.989,1.21,13.684,2.424,14.06,2.532.148.043.223.2.287.417.409,1.377.973,7.6,1.257,13.878.153,3.366.2,6.32.15,8.542-.1,4.021-.526,4.515-.667,4.677-.268.31-.85.454-1.831.454a54.5,54.5,0,0,1-11.5-2.141c-3.69-.991-8.043-2.385-8.882-3.1-1.118-.959-4.036-10.656-4.9-13.606-1.466-4.982-3.573-12.755-3.37-13.753a.3.3,0,0,1,.2-.247A.564.564,0,0,1,4976.833-1889.008Zm28.91,5.313c-.732-.164-6.939-1.293-13.954-2.507-8.5-1.472-13.907-2.329-14.9-2.363a24.875,24.875,0,0,0,.89,4.411c.614,2.474,1.506,5.731,2.448,8.937,2.205,7.5,4.133,12.929,4.8,13.5s4.326,1.836,8.709,3.013a54.142,54.142,0,0,0,11.387,2.126c1.075,0,1.4-.189,1.5-.3.181-.209.495-1.1.566-4.688.059-2.973-.071-6.515-.191-8.963-.151-3.1-.379-6.322-.624-8.844A21.089,21.089,0,0,0,5005.743-1883.7Z" transform="translate(-4966.965 1916.707)"/><path class="g" d="M5084.607-1882.536c-.653.529.127,25.393,1.332,27.439s25.875-1.805,28.4-4.092,9.055-26.281,8.424-27.439-10.077,1.023-19.617,2.046S5085.261-1883.065,5084.607-1882.536Z" transform="translate(-5035.769 1915.309)"/><path class="g" d="M5121.363-1887.208h0c.916,0,1.4.137,1.566.445.074.136.271.5-.674,4.609-.571,2.484-1.423,5.711-2.336,8.854-.861,2.962-3.8,12.742-5.459,14.244-1.421,1.286-8.69,2.68-10.884,3.077a95,95,0,0,1-14.536,1.652c-2.614,0-3.147-.393-3.321-.688-.809-1.374-1.271-11.363-1.393-14.391-.131-3.243-.207-6.5-.207-8.937,0-4.136.2-4.3.319-4.394.449-.363,3.252-.633,9.044-1.161,2.881-.263,6.147-.561,9.612-.932,3.53-.378,7.027-.913,10.113-1.384A69.783,69.783,0,0,1,5121.363-1887.208Zm-32.323,32.441a94.574,94.574,0,0,0,14.458-1.645c5.692-1.029,9.779-2.167,10.667-2.97,1.041-.942,3.074-6.286,5.3-13.946.907-3.117,1.758-6.33,2.333-8.816.892-3.86.757-4.366.739-4.411s-.167-.211-1.176-.211h0a71.2,71.2,0,0,0-8.089.988c-3.09.472-6.592,1.007-10.131,1.386-3.469.372-6.736.67-9.619.933-2.475.226-4.611.421-6.166.6a10.729,10.729,0,0,0-2.619.451c-.225.569-.262,5.964.039,13.254.315,7.626.834,13.089,1.322,13.917C5086.165-1855.127,5086.569-1854.767,5089.04-1854.767Z" transform="translate(-5035.739 1915.339)"/><path class="g" d="M5069.676-1840.691c-.066-1.378-1.63-33.763-1.387-34.98l.433.087c-.187.931.831,23.217,1.4,34.872Z" transform="translate(-5025.654 1908.075)"/><path class="h" d="M5041.278-1760.481a5.981,5.981,0,0,1,2.119.542c.612.27,1.342.687,1.342,1.145,0,.127.015.611.035,1.28.049,1.577.132,4.217.156,6.535.046,4.331-.139,4.505-.261,4.621a.814.814,0,0,1-.572.162,8.572,8.572,0,0,1-3.586-1.129c-.083-.083-.195-.2-.262-2.15-.038-1.065-.054-2.521-.047-4.1a59.178,59.178,0,0,1,.256-6.491C5040.521-1760.257,5040.714-1760.481,5041.278-1760.481Zm3.076,13.808a22.177,22.177,0,0,0,.134-4.455c-.026-2.276-.106-4.841-.154-6.373-.021-.7-.036-1.16-.036-1.294,0-.084-.275-.388-1.081-.742a5.5,5.5,0,0,0-1.938-.5c-.252,0-.383.056-.4.111a56.32,56.32,0,0,0-.233,6.192,41.915,41.915,0,0,0,.2,6.114,8.967,8.967,0,0,0,3.257.984A.65.65,0,0,0,5044.354-1746.673Z" transform="translate(-5007.828 1834.411)"/><path class="h" d="M5117.726-1763.359a1.264,1.264,0,0,1,.732.165c.126.091.318.229.411,2.538.063,1.557.055,3.467.037,4.8-.022,1.672-.074,3.42-.142,4.8a8.314,8.314,0,0,1-.244,2.481c-.139.24-.676.471-1.6.688a10.742,10.742,0,0,1-2.225.3c-.489,0-.762-.078-.884-.251-.062-.088-.156-.221-.213-2.424-.031-1.21-.044-2.862-.037-4.653.009-2.284.068-6.705.226-7.093.147-.36.961-.688,1.618-.9A8.432,8.432,0,0,1,5117.726-1763.359Zm.46.515a.965.965,0,0,0-.46-.074,7.959,7.959,0,0,0-2.16.416,3.286,3.286,0,0,0-1.364.653c-.081.277-.178,2.968-.194,6.863a60,60,0,0,0,.173,6.886,1.269,1.269,0,0,0,.52.066,8.425,8.425,0,0,0,3.436-.766,66.05,66.05,0,0,0,.329-7c.025-1.84.015-3.459-.03-4.681A7.8,7.8,0,0,0,5118.187-1762.844Z" transform="translate(-5054.681 1836.345)"/><path class="h" d="M5041.229-1660.41c1.153,0,3.524.949,3.97,1.738.4.7.419,6.205.421,6.831,0,1.636-.029,3.173-.091,4.329-.112,2.064-.279,2.248-.36,2.336a1.116,1.116,0,0,1-.851.256c-1.18,0-3.479-.734-3.843-1.515-.3-.651-.325-6.259-.326-6.9,0-1.672.021-3.242.069-4.422.084-2.1.212-2.286.272-2.377A.836.836,0,0,1,5041.229-1660.41Zm3.611,14.939c.173-.278.35-2.63.338-6.461a33.688,33.688,0,0,0-.364-6.523c-.335-.594-2.513-1.513-3.585-1.513-.243,0-.346.05-.37.082a40.085,40.085,0,0,0-.269,6.623,45.877,45.877,0,0,0,.284,6.641c.083.177.49.5,1.368.82a6.675,6.675,0,0,0,2.076.441A.836.836,0,0,0,5044.84-1645.471Z" transform="translate(-5007.835 1770.525)"/><path class="h" d="M5079.6-1670.891h-.441l.317-106.353h.441Z" transform="translate(-5032.494 1844.641)"/><path class="h" d="M5117.888-1659.006a.942.942,0,0,1,.581.146c.123.094.251.286.353,1.5.125,1.477.167,4.141.105,6.788-.028,1.247-.076,2.342-.138,3.166-.108,1.434-.224,1.558-.292,1.631a9.5,9.5,0,0,1-4.025,1.138.833.833,0,0,1-.63-.174c-.081-.086-.192-.2-.265-2.141-.04-1.063-.058-2.5-.053-4.054a55.809,55.809,0,0,1,.277-6.323c.2-.435,1.174-.874,1.738-1.1A7.567,7.567,0,0,1,5117.888-1659.006Zm.3.49a.649.649,0,0,0-.3-.048,7.041,7.041,0,0,0-2.187.547,3.5,3.5,0,0,0-1.5.87,47.3,47.3,0,0,0-.238,6.02,42.114,42.114,0,0,0,.207,6.014.9.9,0,0,0,.3.034,9.667,9.667,0,0,0,3.694-.988,36.853,36.853,0,0,0,.346-6.225C5118.536-1656,5118.369-1658.218,5118.19-1658.516Z" transform="translate(-5054.686 1769.683)"/><path class="h" d="M5046.3-1563.037a4.666,4.666,0,0,1,3.044,2.332,47.211,47.211,0,0,1,.339,6.659c.01,1.592-.011,3.058-.06,4.129-.09,1.969-.245,2.114-.337,2.2a.694.694,0,0,1-.492.166,5.216,5.216,0,0,1-2.973-1.652c-.058-.091-.179-.278-.26-2.383-.045-1.183-.069-2.755-.065-4.426,0-1.643.031-3.213.08-4.421.083-2.092.193-2.279.24-2.36A.523.523,0,0,1,5046.3-1563.037Zm2.675,15.006a31.013,31.013,0,0,0,.265-6.149,47.064,47.064,0,0,0-.314-6.383,4.423,4.423,0,0,0-2.625-2.033c-.021,0-.085,0-.1.025a48.069,48.069,0,0,0-.262,6.561,41.685,41.685,0,0,0,.257,6.572,4.9,4.9,0,0,0,2.6,1.446A.328.328,0,0,0,5048.974-1548.03Z" transform="translate(-5011.239 1708.339)"/><path class="h" d="M5121.628-1565.613a1.945,1.945,0,0,1,1.146.236c.194.154.651.514.662,11.7.006,5.477-.1,10.936-.1,10.991l0,.163-.157.045-9.394,2.672-.011-.28c0-.053-.218-5.417-.324-10.893-.217-11.135.212-11.871.354-12.113C5114.587-1564.448,5119.534-1565.613,5121.628-1565.613Zm.865.577a1.65,1.65,0,0,0-.865-.135,17.466,17.466,0,0,0-4.315.741c-1.678.489-2.849,1.071-3.133,1.557-.19.325-.48,2.3-.294,11.882.093,4.758.268,9.431.313,10.6l8.7-2.474c.018-.939.1-5.771.1-10.658,0-3.18-.041-5.76-.114-7.668C5122.758-1564.4,5122.557-1564.945,5122.493-1565.037Z" transform="translate(-5054.672 1710.088)"/><path class="e" d="M1.219,30.817A.221.221,0,0,1,1,30.547C2.87,22.522,7.1-1.472,7.145-1.713A.221.221,0,0,1,7.4-1.892a.221.221,0,0,1,.179.256C7.537-1.4,3.3,22.611,1.433,30.647A.221.221,0,0,1,1.219,30.817Z" transform="translate(41.641 1.896)"/><path class="e" d="M5084.2-1862.7l-.194-.4c.26-.127,1.051-.514,19.632-2.03,9.165-.748,18.249-1.408,18.339-1.414l.032.44C5111.936-1865.367,5085.5-1863.332,5084.2-1862.7Z" transform="translate(-5035.999 1902.391)"/><path class="e" d="M5086.684-1818.8a.154.154,0,0,0,.036-.027l-.312-.312c.1-.1.22-.22,5.387-.839,2.7-.324,6.439-.741,11.1-1.238,7.937-.847,15.916-1.645,16-1.653l.043.439C5106.41-1821.178,5087.484-1819.178,5086.684-1818.8Z" transform="translate(-5037.724 1874.49)"/><path class="e" d="M5010.47-1865.333l-29.538-4.115.062-.437,29.538,4.115Z" transform="translate(-4970.216 1904.518)"/><path class="e" d="M5020.365-1817.885l-25.138-3.911.068-.436,25.138,3.911Z" transform="translate(-4979.381 1874.059)"/><path class="e" d="M5000.8-1859.672c-.205-1.108-5.015-27.156-5.015-28.8h.441c0,1.607,4.958,28.453,5.007,28.724Z" transform="translate(-4979.885 1916.768)"/><path class="e" d="M5022.213-1853.182l-4.2-29.5.438-.062,4.2,29.5Z" transform="translate(-4993.472 1912.469)"/><path class="e" d="M5041.119-1849.852l-4.357-29.5.436-.064,4.357,29.5Z" transform="translate(-5005.455 1910.403)"/><path class="e" d="M5104.543-1849.038l-.44-.03,2.037-30.027.44.03Z" transform="translate(-5048.476 1910.183)"/><path class="e" d="M5128.855-1851.5l-.44-.039,2.69-29.945.439.039Z" transform="translate(-5064.027 1911.669)"/><path class="e" d="M5156.443-1855.686l-.438-.053,3.543-29.579.438.053Z" transform="translate(-5081.716 1913.99)"/><path class="h" d="M5037.39-1695.544l-.05-.013-24.071-6.258.112-.427L5037.4-1696l29.313-6.247.092.432Z" transform="translate(-4990.353 1797.382)"/><path class="h" d="M5038.771-1596.972l-.063-.021c-.055-.019-5.549-1.918-11.114-3.782-9.594-3.215-11.574-3.714-11.879-3.714h-.015a.119.119,0,0,0,.026-.006l-.14-.419c.169-.056.521-.173,11.973,3.661,5.306,1.777,10.6,3.6,11.23,3.821l29.405-7.487.109.428Z" transform="translate(-4991.843 1735.201)"/></g></g></svg>